# xmcd
#
# Track frame offsets: 
#        150
#        19440
#        38287
#        51815
#        69750
#        86090
#        106250
#        130617
#        158880
#        172225
#        185547
#        200855
#        212092
#        227247
#        249527
#
# Disc length: 3892 seconds
#
# Revision: 1
# Processed by: cddbd v1.5.1PL2 Copyright (c) Steve Scherf et al.
# Submitted via: ExactAudioCopy v0.95b4
#
DISCID=cf0f320f
DTITLE=Blood, Sweat and Tears - What Goes Up!: The Best Of Blood, Sweat 
DTITLE=& Tears [CD2]
DYEAR=1900
DGENRE=
TTITLE0=Go Down Gamblin'
TTITLE1=Mama Gets High
TTITLE2=Lisa, Listen to Me
TTITLE3=Valentine's Day
TTITLE4=John the Baptist (Holy John)
TTITLE5=So Long Dixie
TTITLE6=Snow Queen
TTITLE7=Maiden Voyage
TTITLE8=I Can't Move No Mountains
TTITLE9=Time Remembered
TTITLE10=Roller Coaster
TTITLE11=Tell Me That I'm Wrong
TTITLE12=Got to Get You Into My Life
TTITLE13=You're the One
TTITLE14=Mean Ole World (live)
EXTD=
EXTT0=
EXTT1=
EXTT2=
EXTT3=
EXTT4=
EXTT5=
EXTT6=
EXTT7=
EXTT8=
EXTT9=
EXTT10=
EXTT11=
EXTT12=
EXTT13=
EXTT14=
PLAYORDER=
